<?xml version="1.0" encoding="UTF-8"?>
<svg id="Layer_2" data-name="Layer 2" xmlns="http://www.w3.org/2000/svg" viewBox="0 0 200.8 62.67">
  <defs>
    <style>
      .cls-1 {
        stroke-width: 0px;
      }
    </style>
  </defs>
  <g id="Layer_1-2" data-name="Layer 1">
    <path class="cls-1" d="m183.8,62.67H17C7.61,62.67,0,55.06,0,45.67v-28.67C0,7.61,7.61,0,17,0h48.04c3.49,0,6.89,1.07,9.75,3.07l1.3.91c2.81,1.97,6.15,3.04,9.58,3.07l29.03.29c3.7.04,7.31-1.13,10.28-3.33l.91-.67c2.93-2.17,6.47-3.33,10.11-3.33h47.79c9.39,0,17,7.61,17,17v28.67c0,9.39-7.61,17-17,17Z"/>
  </g>
</svg>